<?xml version="1.0" ?><!DOCTYPE svg  PUBLIC '-//W3C//DTD SVG 1.1//EN'  'http://www.w3.org/Graphics/SVG/1.1/DTD/svg11.dtd'><svg enable-background="new 0 0 91 91" height="91px" id="Layer_1" version="1.1" viewBox="0 0 91 91" width="91px" xml:space="preserve" xmlns="http://www.w3.org/2000/svg" xmlns:xlink="http://www.w3.org/1999/xlink"><g><path d="M58.766,32.911l-26.406,11.67c-0.68,0.301-1.086,1.008-1.002,1.746c0.084,0.739,0.637,1.338,1.367,1.479   l11.227,2.164l2.164,11.225c0.141,0.73,0.738,1.284,1.477,1.368c0.064,0.007,0.129,0.011,0.193,0.011   c0.666,0,1.279-0.393,1.553-1.013l11.67-26.407c0.285-0.642,0.145-1.393-0.352-1.889C60.16,32.768,59.408,32.629,58.766,32.911z    M48.426,55.217l-1.354-7.021c-0.131-0.682-0.666-1.215-1.348-1.348l-7.021-1.354l17.42-7.698L48.426,55.217z" fill="#010101"/><path d="M46.25,20.667c-14.889,0-27.002,12.114-27.002,27.004c0,14.889,12.113,27.002,27.002,27.002   c14.891,0,27.004-12.113,27.004-27.002C73.254,32.781,61.141,20.667,46.25,20.667z M46.25,71.272   c-13.014,0-23.602-10.588-23.602-23.602c0-13.016,10.588-23.604,23.602-23.604c13.016,0,23.604,10.588,23.604,23.604   C69.854,60.685,59.266,71.272,46.25,71.272z" fill="#010101"/></g></svg>