<?xml version="1.0" ?><!DOCTYPE svg  PUBLIC '-//W3C//DTD SVG 1.1//EN'  'http://www.w3.org/Graphics/SVG/1.1/DTD/svg11.dtd'><svg enable-background="new 0 0 520 520" height="520px" id="Layer_1" version="1.1" viewBox="0 0 520 520" width="520px" xml:space="preserve" xmlns="http://www.w3.org/2000/svg" xmlns:xlink="http://www.w3.org/1999/xlink"><g><path d="M84.219,265.285c3.978-9.126,9.396-17.042,16.263-23.751c6.863-6.706,14.936-11.971,24.219-15.795   c9.279-3.821,19.225-5.733,29.835-5.733c3.897,0,7.291,0.157,10.179,0.468c2.885,0.314,6.201,0.936,9.945,1.872   c0.621,0,1.558,0.234,2.808,0.702l-0.936-0.234c1.246,0.468,2.533,0.899,3.86,1.287c1.324,0.391,2.143,0.666,2.457,0.819   l2.341,0.936l17.783-48.672l-0.233-0.702l-5.148-9.126v-3.51c0.622-0.936,1.053-1.558,1.287-1.872   c0.234-0.311,0.662-0.702,1.287-1.17c0.936-1.247,2.3-2.808,4.095-4.68c1.792-1.872,3.236-3.43,4.329-4.68l4.446-4.446h34.632   c0,1.25,0.077,2.848,0.234,4.797c0.153,1.953,0.311,3.316,0.468,4.095v8.424h-27.378l-0.937,1.404l4.681,8.658l-5.851,20.592   h75.816C294.234,194.5,294,194.347,294,194.5l0.234,0.234c-0.937-0.311-2.029-0.702-3.276-1.17c-1.25-0.468-2.457-1.13-3.627-1.989   c-1.17-0.856-2.146-1.832-2.925-2.925c-0.782-1.089-1.17-2.494-1.17-4.212c0-2.651,0.855-4.6,2.573-5.85   c1.715-1.247,3.587-1.872,5.616-1.872c0.622,0,1.755-0.036,3.394-0.117c1.638-0.077,3.546-0.154,5.732-0.234   c2.183-0.077,4.563-0.194,7.138-0.351c2.573-0.154,5.107-0.311,7.604-0.468c4.991-0.311,9.711-0.545,14.157-0.702   c4.446-0.154,7.524-0.388,9.243-0.702h12.168c4.055,1.718,6.084,4.135,6.084,7.254c0,0.936-0.197,1.912-0.585,2.925   c-0.392,1.017-0.819,1.913-1.287,2.691c-3.744,3.744-7.371,6.552-10.881,8.424c-3.511,1.872-7.452,3.356-11.817,4.446l-1.872,4.68   l19.422,23.868c5.77-2.808,11.543-4.914,17.316-6.318c5.77-1.404,12.087-2.106,18.954-2.106c10.606,0,20.592,1.912,29.952,5.733   c9.359,3.825,17.51,9.049,24.452,15.678c6.94,6.632,12.402,14.508,16.381,23.634c3.978,9.126,5.967,18.994,5.967,29.602   c0,10.609-1.953,20.475-5.851,29.601c-3.9,9.126-9.283,17.122-16.146,23.985c-6.866,6.866-14.939,12.248-24.219,16.146   c-9.283,3.901-19.306,5.851-30.069,5.851c-8.271,0-16.227-1.287-23.868-3.861c-7.646-2.574-14.625-6.121-20.943-10.646   c-6.317-4.523-11.897-9.982-16.73-16.381c-4.837-6.395-8.658-13.338-11.466-20.826l-15.679,2.809   c-0.157,0.314-0.508,0.742-1.053,1.287c-0.548,0.549-1.053,1.133-1.521,1.755l-0.469,0.468l2.574,11.467h0.702   c1.247,0,2.417,0.976,3.51,2.924c1.09,1.953,1.639,3.551,1.639,4.797c0-0.467,0.076-0.701,0.233-0.701   c0,2.186-0.233,3.941-0.702,5.265c-0.468,1.327-2.029,1.989-4.68,1.989h-0.234c-0.314,0-1.053,0.04-2.223,0.117   c-1.17,0.08-2.38,0.197-3.627,0.351c-1.25,0.157-2.42,0.233-3.51,0.233c-0.937,0-1.719,0-2.34,0h-2.809   c-3.433,0-5.147-1.714-5.147-5.147v-6.317l1.872-1.873l0.468-0.467l-3.276-13.104c0.312,1.093,0.428,1.718,0.352,1.872   c-0.081,0.157-0.274,0.157-0.585,0c-2.029-0.779-4.019-1.989-5.968-3.627c-1.952-1.639-2.925-4.717-2.925-9.243V311.5l-0.468-0.468   l0.234,0.468l-44.929-49.842c5.302,10.143,7.956,21.217,7.956,33.229c0,10.609-1.988,20.475-5.967,29.6   c-3.978,9.127-9.44,17.082-16.38,23.869c-6.943,6.785-15.057,12.131-24.336,16.028c-9.283,3.901-19.229,5.851-29.835,5.851   c-10.61,0-20.556-1.949-29.835-5.851c-9.283-3.897-17.356-9.279-24.219-16.146c-6.866-6.863-12.285-14.859-16.263-23.985   c-3.978-9.126-5.967-18.991-5.967-29.601C78.252,284.203,80.241,274.411,84.219,265.285z M88.548,322.381   c3.744,8.658,8.812,16.227,15.21,22.698c6.395,6.476,13.96,11.546,22.698,15.21c8.735,3.667,18.095,5.499,28.08,5.499   c9.981,0,19.342-1.832,28.08-5.499c8.734-3.664,16.38-8.695,22.932-15.094c6.552-6.395,11.7-13.922,15.444-22.58   s5.616-17.901,5.616-27.729c0-11.232-2.381-21.488-7.138-30.771c-4.76-9.28-11.429-17.587-20.007-24.921   c0.311-1.247,0.622-2.457,0.937-3.627c0.311-1.17,0.855-2.376,1.638-3.627l3.51,3.276l65.754,73.242l1.639,2.34   c-0.469,3.122-0.274,5.423,0.585,6.903c0.855,1.484,1.872,2.614,3.042,3.393c1.17,0.783,2.34,1.367,3.51,1.756   c1.17,0.391,1.832,1.053,1.989,1.988l4.212,15.678c-0.314,0-0.819,0.081-1.521,0.234c-0.702,0.157-1.133,0.234-1.287,0.234   l-0.702,0.701v4.446c0,0.468,0.234,0.702,0.702,0.702h1.17h1.639c0.468,0,1.246-0.037,2.34-0.117   c1.09-0.076,2.223-0.153,3.393-0.234c1.17-0.076,2.34-0.152,3.511-0.233c1.17-0.077,1.988-0.117,2.456-0.117   c0.622,0.157,0.937-0.233,0.937-1.17c-0.157-0.468-0.234-0.778-0.234-0.937c0-0.467-0.04-1.129-0.116-1.988   c-0.081-0.855-0.198-1.287-0.352-1.287h-4.446l-3.51-15.912v-1.872c0.779-0.778,1.832-1.908,3.159-3.393   c1.323-1.481,2.61-2.377,3.861-2.691l19.422-3.51c2.34,7.646,5.81,14.665,10.413,21.06c4.6,6.398,9.944,11.935,16.028,16.614   c6.084,4.681,12.83,8.308,20.241,10.881c7.408,2.574,15.17,3.861,23.283,3.861c9.981,0,19.382-1.832,28.197-5.499   c8.812-3.664,16.416-8.734,22.814-15.21c6.395-6.472,11.466-14.04,15.21-22.698s5.616-17.9,5.616-27.729   c0-9.982-1.872-19.225-5.616-27.729c-3.744-8.5-8.892-15.912-15.443-22.23c-6.553-6.318-14.238-11.269-23.05-14.859   c-8.814-3.587-18.215-5.382-28.196-5.382c-6.867,0-13.222,0.782-19.071,2.34c-5.85,1.561-11.74,3.824-17.667,6.786h-1.17   l-22.932-28.314l3.51-9.126l0.468-0.468c4.522-0.779,8.541-1.949,12.051-3.51c3.51-1.558,6.823-4.132,9.945-7.722   c0.778-1.089,1.17-2.106,1.17-3.042c0-1.247-0.782-2.183-2.34-2.808h-1.17h-3.042h-1.17h-1.404h-3.51h-0.702   c-1.719,0.314-4.837,0.548-9.36,0.702c-4.526,0.157-9.283,0.351-14.273,0.585c-4.995,0.234-9.752,0.468-14.274,0.702   c-4.526,0.234-7.646,0.431-9.36,0.585c-1.093-0.154-2.028,0.04-2.808,0.585c-0.782,0.548-1.17,1.444-1.17,2.691   c0,0.936,0.351,1.718,1.053,2.34c0.702,0.625,1.481,1.21,2.34,1.755c0.856,0.548,1.756,0.976,2.691,1.287   c0.936,0.314,1.638,0.549,2.106,0.702l2.808,1.404c1.715,0.468,2.808,0.783,3.276,0.936c0.468,0.157,1.246,0.392,2.34,0.702   c1.558,0.314,3.195,0.666,4.914,1.053c1.715,0.391,2.961,0.742,3.744,1.053l0.701,0.468l-1.17,3.51h-99.918l7.254-24.57   l-5.147-9.36v-1.17l3.978-4.68h24.805v-0.702v-2.574c-0.157-0.779-0.314-1.792-0.469-3.042c-0.157-1.247-0.233-1.949-0.233-2.106   h-28.08l-3.042,3.042c-0.782,0.783-1.719,1.795-2.809,3.042c-1.093,1.25-2.187,2.457-3.275,3.627   c-1.094,1.17-2.34,2.538-3.744,4.095v0.936l4.68,7.956l1.404,2.34v0.468v0.234l-19.656,53.118c-0.468,0.468-0.702,0.859-0.702,1.17   h-0.233h-0.469l-5.615-2.34c-0.783-0.311-2.069-0.702-3.861-1.17c-1.795-0.468-2.849-0.779-3.159-0.936   c-3.59-1.089-6.826-1.792-9.711-2.106c-2.888-0.311-6.281-0.468-10.179-0.468c-9.985,0-19.305,1.835-27.963,5.499   c-8.658,3.667-16.227,8.658-22.698,14.976c-6.475,6.318-11.583,13.729-15.327,22.23c-3.744,8.505-5.616,17.667-5.616,27.495   S84.804,313.723,88.548,322.381z M101.418,273.007c3.119-6.939,7.331-12.987,12.636-18.135c5.301-5.148,11.466-9.243,18.486-12.285   s14.508-4.563,22.464-4.563c1.558,0,3.704,0.157,6.435,0.468c2.728,0.314,5.536,0.819,8.424,1.521   c2.885,0.702,5.575,1.561,8.072,2.574c2.494,1.017,4.213,2.146,5.148,3.393c-1.25,4.059-2.614,7.879-4.095,11.466   c-1.484,3.591-3.551,7.177-6.201,10.764c-2.187,2.654-3.901,4.681-5.148,6.084c-1.25,1.404-3.122,3.356-5.615,5.851   c-0.315,0.156-1.053,0.742-2.224,1.754c-1.17,1.018-1.989,1.679-2.457,1.99c-0.936,0.781-1.989,1.443-3.159,1.988   c-1.17,0.549-2.263,1.17-3.276,1.872c-1.017,0.702-1.872,1.521-2.574,2.457s-1.053,2.187-1.053,3.744   c0,2.187,0.778,4.019,2.34,5.499c1.558,1.484,3.43,2.223,5.616,2.223c2.651,0,4.329-0.779,5.031-2.34   c0.702-1.558,1.674-3.195,2.925-4.914c0-0.153,0.271-0.545,0.818-1.17c0.545-0.621,0.973-1.09,1.287-1.404   c3.43-3.119,6.552-6.043,9.36-8.775c2.808-2.727,5.342-5.498,7.604-8.307c2.26-2.808,4.329-5.85,6.201-9.125   c1.872-3.277,3.744-7.098,5.616-11.467c1.247,0.468,2.417,1.368,3.51,2.691c1.09,1.327,1.872,2.304,2.34,2.925   c4.055,4.837,7.138,10.336,9.243,16.497c2.106,6.164,3.159,12.365,3.159,18.604c0,7.802-1.562,15.133-4.68,21.995   c-3.123,6.866-7.295,12.87-12.52,18.019c-5.229,5.147-11.349,9.206-18.369,12.168c-7.02,2.965-14.431,4.445-22.229,4.445   c-7.803,0-15.173-1.48-22.113-4.445c-6.943-2.962-13.067-7.021-18.369-12.168c-5.305-5.148-9.518-11.152-12.636-18.019   c-3.123-6.862-4.68-14.193-4.68-21.995C96.738,287.244,98.295,279.95,101.418,273.007z M105.747,315.127   c2.885,6.318,6.746,11.857,11.583,16.614c4.833,4.761,10.45,8.505,16.848,11.231c6.395,2.731,13.181,4.096,20.358,4.096   c7.173,0,13.959-1.364,20.357-4.096c6.396-2.727,12.052-6.471,16.966-11.231c4.914-4.757,8.812-10.296,11.699-16.614   c2.885-6.318,4.329-13.064,4.329-20.24c0-5.771-0.976-11.467-2.925-17.082c-1.952-5.617-4.797-10.684-8.541-15.211l-0.936-0.701   c-1.719,3.59-3.474,6.826-5.266,9.711c-1.795,2.888-3.744,5.615-5.85,8.189c-2.106,2.574-4.446,5.071-7.021,7.488   c-2.573,2.42-5.499,5.031-8.774,7.839v-0.233l-0.937,0.936c-1.093,1.25-1.678,2.069-1.755,2.457   c-0.08,0.391-0.197,0.742-0.351,1.053v-0.234c-0.937,2.029-2.069,3.708-3.394,5.031c-1.327,1.327-3.626,1.989-6.903,1.989   c-3.59,0-6.552-1.17-8.892-3.511c-2.34-2.34-3.51-5.225-3.51-8.657c0-3.587,0.896-6.161,2.691-7.722   c1.792-1.559,3.938-2.962,6.435-4.213l-0.234,0.234l3.276-2.105c0.154-0.312,0.388-0.622,0.702-0.937   c0.779-0.778,1.521-1.364,2.223-1.755c0.702-0.388,1.207-0.738,1.521-1.053c0.936-0.937,1.792-1.792,2.574-2.574   c0.778-0.779,1.521-1.558,2.223-2.34c0.702-0.779,1.404-1.639,2.105-2.574c0.702-0.936,1.599-2.025,2.691-3.275   c2.025-2.651,3.744-5.536,5.148-8.659c1.403-3.119,2.65-6.318,3.743-9.594c-1.25-0.779-2.925-1.48-5.03-2.106   c-2.106-0.622-4.253-1.129-6.436-1.521c-2.187-0.387-4.329-0.702-6.435-0.936c-2.106-0.234-3.784-0.351-5.031-0.351   c-7.334,0-14.237,1.404-20.709,4.212c-6.475,2.808-12.168,6.592-17.082,11.349c-4.914,4.76-8.775,10.336-11.583,16.731   c-2.808,6.398-4.212,13.104-4.212,20.125C101.418,302.063,102.858,308.809,105.747,315.127z M273.408,290.206l-64.818-71.838   c-0.468-0.468-0.702-1.09-0.702-1.872c0-1.558,0.388-2.651,1.17-3.276c1.404,0,4.055-0.037,7.956-0.117   c3.897-0.077,7.956-0.117,12.168-0.117c4.523,0,8.658-0.037,12.402-0.117c3.744-0.077,6.395-0.117,7.956-0.117   c0.936,0,2.417-0.037,4.446-0.117c2.025-0.077,4.365-0.117,7.02-0.117h17.784h17.784h6.786h4.68v1.17l-25.272,75.348h-0.701   c-0.314-1.872-0.469-3.196-0.469-3.978v-0.937v-0.468h2.341v-5.383H270.6v5.148c0.312,0,0.819,0.041,1.521,0.117   c0.702,0.08,1.13,0.197,1.287,0.352c0.311,0.314,0.504,0.858,0.585,1.637c0.076,0.783,0.117,1.484,0.117,2.106v0.937v2.34   L273.408,290.206z M213.738,217.666l52.416,57.798v-1.638h16.848l19.188-56.862h-41.185c-1.562,0-3.042,0.041-4.446,0.117   c-1.403,0.081-2.73,0.117-3.978,0.117h-8.424c-2.029,0-4.329,0.04-6.903,0.117c-2.574,0.081-5.265,0.117-8.073,0.117   c-2.654,0-5.229,0.04-7.722,0.117c-2.497,0.081-4.837,0.117-7.02,0.117H213.738z M293.064,303.311l27.144-82.135l0.468-0.936   l1.17,0.936l16.146,19.188c-4.526,4.527-8.271,9.049-11.232,13.572c-2.965,4.526-5.346,9.244-7.137,14.157   c-1.795,4.914-3.082,10.062-3.861,15.444c-0.782,5.382-1.17,11.195-1.17,17.434L293.064,303.311z M315.177,266.572   c3.196-8.892,8.775-17.627,16.731-26.208l-9.594-11.466l-22.933,69.264l10.53-1.17   C310.223,285.606,311.978,275.464,315.177,266.572z M348.288,253.468l28.782,36.738l-44.694,7.487h-3.042   c0-8.892,1.17-17.275,3.51-25.154c2.34-7.875,6.939-14.779,13.807-20.709L348.288,253.468z M332.844,310.798l50.778-9.827   c0.778,0.314,1.323,0.508,1.638,0.584c0.311,0.08,0.855,0.117,1.639,0.117c2.183,0,4.095-0.738,5.732-2.223   c1.638-1.48,2.457-3.313,2.457-5.499c0-2.183-0.742-4.015-2.223-5.499c-1.484-1.48-3.239-2.377-5.266-2.691l-29.951-39.078   c-0.469-0.468-0.702-0.855-0.702-1.17v-0.468v-0.234c4.522-2.651,9.279-4.446,14.273-5.382c4.991-0.936,10.063-1.404,15.21-1.404   c7.799,0,15.21,1.521,22.23,4.563c7.02,3.042,13.181,7.137,18.486,12.285c5.301,5.148,9.513,11.195,12.636,18.135   c3.118,6.943,4.68,14.237,4.68,21.88c0,7.802-1.562,15.133-4.68,21.995c-3.123,6.866-7.295,12.87-12.52,18.019   c-5.229,5.147-11.349,9.206-18.369,12.168c-7.02,2.965-14.354,4.445-21.995,4.445c-10.143,0-19.539-2.299-28.197-6.902   c-8.658-4.6-15.719-11.191-21.177-19.773c-1.251-1.715-2.538-3.82-3.861-6.318c-1.327-2.493-1.989-4.833-1.989-7.02   C331.674,311.032,332.062,310.798,332.844,310.798z M334.95,315.01l-1.17,0.234C334.248,315.244,334.636,315.167,334.95,315.01z    M337.056,274.177c-1.718,5.851-2.73,12.132-3.042,18.837l34.633-5.85l-22.465-28.782   C341.813,263.063,338.771,268.327,337.056,274.177z M383.388,305.884l-46.8,8.892c1.247,2.809,2.809,5.383,4.68,7.723   c4.991,7.956,11.503,14.04,19.539,18.252c8.033,4.212,16.731,6.318,26.092,6.318c7.02,0,13.766-1.364,20.24-4.096   c6.472-2.727,12.128-6.471,16.965-11.231c4.834-4.757,8.695-10.296,11.583-16.614c2.886-6.318,4.329-13.064,4.329-20.24   c0-7.021-1.443-13.727-4.329-20.125c-2.888-6.395-6.785-11.971-11.699-16.731c-4.914-4.756-10.61-8.541-17.082-11.349   c-6.476-2.808-13.302-4.212-20.476-4.212c-4.059,0-8.036,0.314-11.934,0.936c-3.901,0.625-7.646,1.719-11.232,3.276l26.91,35.333   c2.651,0.783,4.914,2.223,6.786,4.33c1.872,2.105,2.808,4.643,2.808,7.604c0,3.433-1.25,6.317-3.743,8.657   c-2.498,2.341-5.54,3.511-9.126,3.511C385.337,306.118,384.167,306.041,383.388,305.884z"/></g></svg>